<?xml version="1.0" encoding="UTF-8" standalone="no"?>
<svg
   version="1.1"
   id="Layer_1"
   x="0px"
   y="0px"
   width="100%"
   viewBox="0 0 841 841"
   enable-background="new 0 0 841 841"
   xml:space="preserve"
   sodipodi:docname="gesserit_new.svg"
   inkscape:version="1.4.2 (ebf0e940, 2025-05-08)"
   xmlns:inkscape="http://www.inkscape.org/namespaces/inkscape"
   xmlns:sodipodi="http://sodipodi.sourceforge.net/DTD/sodipodi-0.dtd"
   xmlns="http://www.w3.org/2000/svg"
   xmlns:svg="http://www.w3.org/2000/svg"><defs
   id="defs98" /><sodipodi:namedview
   id="namedview98"
   pagecolor="#ffffff"
   bordercolor="#000000"
   borderopacity="0.25"
   inkscape:showpageshadow="2"
   inkscape:pageopacity="0.0"
   inkscape:pagecheckerboard="0"
   inkscape:deskcolor="#d1d1d1"
   inkscape:zoom="0.65786164"
   inkscape:cx="420.30114"
   inkscape:cy="421.06118"
   inkscape:window-width="1728"
   inkscape:window-height="1051"
   inkscape:window-x="0"
   inkscape:window-y="38"
   inkscape:window-maximized="1"
   inkscape:current-layer="Layer_1" />

<path
   fill="#000000"
   opacity="1"
   stroke="none"
   d="m 663.19377,583.45012 c -7.55652,-6.8916 -12.20423,-14.73267 -9.1579,-25.54279 0.40314,-1.43042 -0.8346,-3.72107 -1.94116,-5.11377 -6.54926,-8.24334 -13.28412,-16.33917 -20.23883,-24.82916 -50.29474,28.62244 -103.9553,31.17322 -158.10471,8.6355 -40.11954,-16.69824 -68.48035,-47.02414 -86.09604,-86.52347 -34.25867,-76.81741 -10.62918,-169.40903 65.71933,-217.06261 71.23706,-44.46319 168.93094,-28.47287 222.9407,35.72896 56.65436,67.34543 55.5318,167.85175 -11.55743,233.98554 7.18915,8.63342 14.32404,17.33221 21.66113,25.85705 0.98127,1.14014 3.04511,2.08167 4.50537,1.95313 7.43421,-0.65418 13.1839,2.03418 17.90583,7.67651 14.7373,17.61029 29.56317,35.14648 44.36035,52.7066 15.33197,18.19495 30.67016,36.38459 46.00818,54.57441 0.32196,0.38177 0.68518,0.72857 1.01129,1.10717 16.51843,19.17585 10.54712,42.45118 -13.30817,51.67481 -12.60089,4.87213 -24.12896,2.74182 -33.2102,-7.16504 -11.34748,-12.37903 -21.94202,-25.44965 -32.81629,-38.26019 -5.27319,-6.21216 -10.44281,-12.51215 -15.41778,-19.11548 1.55047,0.17956 2.85943,0.70209 4.37378,1.3067 0,-2.02362 0,-3.711 0,-5.88422 6.19189,1.87885 11.91559,4.98291 17.79254,1.55445 0.63269,-4.60614 0.88464,-9.22467 1.98028,-13.63355 1.09485,-4.40576 -0.13507,-10.14471 -3.68933,-13.09161 -5.37756,-4.45874 -6.75116,-8.10712 -5.005,-12.3393 -3.14472,-3.31018 -5.67511,-8.31952 -9.2757,-9.26861 -7.18933,-1.89502 -9.92901,-7.97699 -13.81451,-12.461 -6.34332,-7.32037 -14.8299,-10.16571 -22.82959,-14.22205 -0.8913,-0.45196 -2.48371,-0.42743 -3.32581,0.0806 -4.54406,2.74133 -7.52215,1.50086 -9.60467,-5.30359 -2.12335,3.30652 -3.39344,5.25257 -4.63166,7.21869 -3.39233,5.38623 -2.69598,12.49603 1.15369,17.4018 1.93842,2.47015 3.09967,5.55017 4.61231,8.35449 m -211.24112,-95.2154 c 33.29229,28.31772 71.79553,39.1904 114.7659,32.70554 27.77899,-4.19226 52.44867,-16.01099 73.09106,-35.41742 36.18439,-34.01779 52.75189,-75.49194 46.61365,-125.21011 -4.02509,-32.60138 -18.51496,-60.37604 -41.98871,-82.96439 -24.62042,-23.69171 -54.17352,-37.50894 -88.63318,-40.22893 -24.98099,-1.97181 -48.944,1.72222 -71.64737,12.28978 -61.45477,28.60495 -93.92828,94.76792 -78.89508,160.72388 7.03531,30.86633 22.41809,56.72311 46.69373,78.10165 z"
   id="path1" />
<path
   fill="#000000"
   opacity="1"
   stroke="none"
   d="m 504.40235,601.20048 c 17.81809,-0.13617 35.63599,-0.34729 53.45432,-0.39196 31.16479,-0.0781 62.33008,-0.0856 93.49469,0.0103 1.75958,0.005 4.12793,0.69202 5.18237,1.93555 19.36908,22.84082 38.58258,45.81372 57.81568,68.76983 0.48864,0.58332 0.8269,1.29279 1.44311,2.2743 -17.24884,0 -33.99353,0.006 -50.73816,-9.8e-4 -55.16455,-0.0226 -110.3291,-0.0316 -165.49356,-0.12128 -3.25845,-0.005 -5.27042,0.92279 -7.38,3.72003 -7.58435,10.05671 -17.65851,15.87623 -30.59635,15.88489 -19.49951,0.013 -39.00256,-0.20935 -58.49728,0.0996 -13.84052,0.21936 -23.82413,-6.16522 -31.10556,-17.17596 -2.01569,-3.04798 -4.31729,-2.53144 -6.77814,-2.53308 -35.49847,-0.0243 -70.99701,0.0417 -106.49553,0.0402 -67.99696,-0.003 -135.99392,-0.0267 -203.990846,-0.0853 -2.809894,-0.002 -5.73463,-0.0277 -8.407087,-0.76385 -7.418755,-2.04371 -11.272853,-7.84772 -11.296548,-16.67841 -0.04114,-15.33142 0.03542,-30.66321 0.572053,-46.45557 3.308087,-1.32763 5.543717,-1.1856 8.155093,0.96436 4.05053,3.33472 8.804139,5.82233 13.305093,8.59534 0.624985,0.38501 1.639427,0.68939 2.250868,0.45361 3.456838,-1.33313 5.692373,0.22003 7.752786,2.77801 0.645253,0.80115 1.75755,1.37665 2.769791,1.70643 5.425922,1.7677 10.88776,3.42517 16.656815,5.22009 1.014442,-1.09815 2.163448,-3.49439 3.840377,-3.95075 6.106663,-1.66186 12.376105,-2.74994 18.613575,-3.89422 2.27744,-0.41779 4.63693,-0.38825 6.08406,-0.49701 1.63125,1.37518 2.8339,2.38904 4.91662,4.1449 0,-2.88898 0,-4.25635 0,-5.79059 7.50772,-1.65515 14.73016,-3.15888 21.90632,-4.85816 5.45719,-1.29223 10.81621,-3.84851 16.28799,-4.06061 13.11693,-0.50866 26.01383,-4.79083 39.43888,-1.51391 4.99284,1.21869 10.68248,-0.70654 16.05095,-0.67157 8.63308,0.0562 17.26118,0.69775 25.89527,0.82208 11.6577,0.16797 23.31914,0.0604 34.97879,0.11322 4.07531,0.0185 8.15818,0.0294 12.22326,0.27783 7.13412,0.43598 14.32196,1.87812 21.36386,1.32569 5.38025,-0.42206 10.01101,-0.003 14.7117,2.45953 1.81082,0.94855 4.04596,1.44092 6.10174,1.48468 3.03409,0.0647 6.08063,-0.4574 10.03235,-0.81109 -0.96142,3.34393 -1.53714,5.34631 -2.17059,7.54949 2.59573,1.80164 5.21771,3.6214 8.50775,5.90485 0.51288,4.82306 3.57901,7.25415 9.59726,7.22296 1.73605,-0.009 3.57559,1.15204 5.18744,2.08728 1.23074,0.71399 2.03436,2.17743 3.27429,2.86029 6.03671,3.32447 12.23218,6.3667 18.20279,9.80194 1.91602,1.1023 3.09259,4.07959 4.99237,4.51349 6.58722,1.50428 13.32083,2.47376 20.04608,3.22052 3.1149,0.34583 5.98752,0.15876 7.05622,4.00495 0.22714,0.81732 1.64788,1.88037 2.48599,1.85235 3.96972,-0.13287 8.87195,1.93982 10.7948,-4.01507 0.13785,-0.42701 1.91107,-0.77021 2.66934,-0.48224 5.99905,2.27862 11.58285,2.68207 17.43451,-1.0614 4.42023,-2.82764 9.56421,-4.52973 14.40625,-6.68744 0.97113,-0.43274 2.03256,-0.66339 3.05343,-0.98377 3.35715,-1.05334 6.83906,-1.82226 10.04099,-3.2287 4.03223,-1.77105 6.60565,-6.44122 12.05072,-5.66198 1.22577,0.17535 3.29913,-1.31336 3.9982,-2.57941 1.59021,-2.88013 3.87759,-3.36267 6.70038,-3.06158 2.66904,0.28466 4.90893,-0.47004 4.99643,-3.43287 0.17215,-5.83093 2.69882,-8.5946 8.68808,-7.73614 0.27936,0.04 0.65167,-0.56873 1.06808,-0.95685 -1.56576,-0.76495 -2.97278,-1.45233 -5.06717,-2.47558 4.06095,-4.39643 7.14179,-9.17951 12.97003,-10.30005 3.76581,-0.72412 8.31107,2.02307 11.13291,-2.7378 0.14764,-0.24908 0.9411,-0.21692 1.41339,-0.15619 3.96567,0.50995 7.92084,1.43329 11.89041,1.4936 4.50995,0.0684 9.03784,-0.55976 13.54547,-1.01062 2.83478,-0.28351 5.6377,-1.05506 8.47058,-1.15278 5.47077,-0.18853 10.95264,-0.055 16.42987,-0.055 0.0351,-0.60437 0.0703,-1.20868 0.10535,-1.81305 -0.53162,-0.21503 -1.05566,-0.5954 -1.59607,-0.62024 -8.20441,-0.37756 -16.40875,-0.92303 -24.61737,-1.00451 -15.82349,-0.15717 -31.65015,0.0138 -47.47372,-0.13672 -1.60743,-0.0153 -3.20285,-1.29492 -4.80384,-1.9878 z"
   id="path2" />
<path
   fill="#000000"
   opacity="1"
   stroke="none"
   d="m 80.486356,163.27646 c -0.07109,-5.15232 -0.275154,-10.30699 -0.18317,-15.45639 0.150833,-8.44388 4.611313,-13.71767 13.794975,-15.64942 1.620438,0.0876 2.460572,0.11083 3.364174,0.47737 1.742348,2.28824 3.093945,2.39003 4.404705,-0.35147 4.48618,-0.003 8.5094,7.2e-4 12.61213,0.37705 2.02714,0.78377 3.97475,1.19465 6.25569,1.60556 0.77778,0 1.22223,0 2.04244,-2.8e-4 2.79192,-3e-4 5.20808,-3.2e-4 7.95756,-2.4e-4 0.77778,1e-5 1.22223,-5e-5 2.06186,6e-5 1.79898,-0.6613 3.20277,-1.32272 5.07509,-1.98804 70.15798,-0.0134 139.84744,-0.0229 210.00619,-0.0237 2.70206,-0.0288 4.93481,-0.0662 7.16757,-0.10364 27.80939,1.69437 52.4047,11.18189 73.05774,30.18322 1.33588,1.22902 2.46942,2.67794 3.92093,4.27002 15.79642,-16.37359 34.63641,-26.64486 57.14932,-31.24152 1.25281,0.61642 1.83326,1.03191 2.4137,1.44739 0.27176,-0.80156 0.54352,-1.60312 0.81531,-2.40468 0.37085,-0.10701 0.7417,-0.21402 1.71783,-0.26444 1.15894,-0.19093 1.71253,-0.43844 2.26615,-0.68594 0.96353,-0.13022 1.92709,-0.26042 3.62472,-0.29718 2.17654,-0.80182 4.8389,5.17108 5.39151,-0.73381 1.55557,-0.1738 3.11118,-0.3476 5.54651,-0.36101 69.59512,0.17526 138.31052,0.1987 207.02585,0.19911 17.63543,1.1e-4 35.27093,-0.0724 52.90637,-0.11152 7.43597,1.70898 11.71204,6.39335 12.8031,14.69107 -0.25531,125.25369 -0.27692,249.6676 -0.28241,374.08151 -10e-4,25.64838 0.0579,51.29669 0.0892,76.94507 0.10089,0.58978 0.20179,1.17956 -0.19323,2.07544 -1.00122,0.32629 -1.50653,0.34649 -2.01178,0.36676 -8.13172,-9.63623 -16.34528,-19.20581 -24.30689,-28.98053 -1.19678,-1.46924 -1.69989,-3.89588 -1.70807,-5.883 -0.16571,-39.97784 -0.26935,-79.9562 -0.27063,-119.93448 -0.003,-93.28576 0.0547,-186.57153 0.0878,-279.85728 4.9e-4,-1.29294 1.2e-4,-2.58588 1.2e-4,-4.16023 -1.67035,-0.0896 -2.95507,-0.21887 -4.23974,-0.21891 -79.79621,-0.002 -159.59235,0.006 -239.38855,0.0249 -2.16315,5.2e-4 -4.32621,0.14122 -7.27844,0.14882 -1.44806,0.16796 -2.107,0.40366 -2.76594,0.63936 -0.70733,0.10738 -1.4147,0.21477 -2.82333,0.26345 -1.52722,0.21443 -2.35312,0.48754 -3.17905,0.76068 -8.11929,3.02591 -16.23855,6.05182 -24.89611,9.17051 -0.76615,0.21018 -0.94495,0.37943 -1.07465,0.60054 -0.14676,0.12497 -0.29355,0.24993 -0.91217,0.17023 -0.98788,0.36186 -1.50394,0.92835 -2.01999,1.49481 -6.29929,6.38658 -12.59857,12.77318 -19.46445,19.43824 -1.4374,0.52708 -2.30825,0.77571 -3.17907,1.02432 0.61773,0.79158 1.23544,1.58316 1.85315,2.37472 -0.0833,0.42812 -0.16651,0.85625 -0.61957,1.89977 -0.39249,4.33305 -0.4151,8.05073 -0.43772,11.7684 0.0939,1.19142 0.18775,2.38283 0.0663,4.21126 -0.25378,0.93216 -0.24176,1.22523 -0.1792,1.51625 -0.38977,1.15509 -0.42059,2.79791 -1.22482,3.3898 -7.98477,5.87628 -16.09742,11.57884 -24.62332,17.65059 -0.14496,-1.46506 -0.36167,-2.65714 -0.36469,-3.84974 -0.0182,-7.15139 -0.64029,-14.37722 0.16299,-21.43899 1.6775,-14.7467 -6.19097,-24.51646 -16.18585,-33.29814 -9.53506,-8.37772 -20.9833,-12.99109 -33.79721,-16.27917 -1.49563,-0.43474 -2.37189,-0.53742 -3.24817,-0.64011 -0.72906,-0.008 -1.45813,-0.0157 -2.80548,-0.36421 -1.81601,-0.43767 -3.0137,-0.53464 -4.21139,-0.63162 -77.30783,-0.0222 -154.61568,-0.0445 -232.44837,-0.51745 -2.81284,-2.59806 -12.02079,-3.42012 -14.08655,-1.55839 -0.36695,0.3307 -0.22431,1.22684 -0.31698,1.86188 -0.66624,1.53206 -1.91005,3.06253 -1.91422,4.59639 -0.10346,38.12738 -0.0727,76.2551 -0.0723,114.38279 0.001,99.8978 0.007,199.79562 -0.0192,299.69342 -0.002,6.84003 -0.25458,13.67999 -0.31915,21.12067 -0.50951,-0.37799 -1.56956,-1.34503 -1.59357,-2.33722 -0.15313,-6.32691 0.0374,-12.66229 -0.12162,-18.98889 -0.0949,-3.77625 -0.6204,-7.54169 -0.90087,-11.71881 0.34855,-3.80072 0.64564,-7.19446 0.94326,-11.00507 4.9e-4,-1.8064 4.3e-4,-3.19605 9.6e-4,-4.96002 6e-5,-1.12323 -4.4e-4,-1.87207 -6e-4,-3.03784 -3e-5,-1.80634 -4.2e-4,-3.19587 -1.8e-4,-4.91864 1.9e-4,-0.77778 -2.4e-4,-1.22223 -3.5e-4,-2.13532 1.5e-4,-21.48999 -1e-5,-42.51129 3.9e-4,-63.90729 2.6e-4,-1.12408 -4e-5,-1.87347 0,-3.0914 3e-5,-6.82364 -2.9e-4,-13.17874 -4e-5,-19.86679 2.1e-4,-0.77688 -1.6e-4,-1.22079 -2.5e-4,-2.13348 -4e-5,-7.82331 -3.8e-4,-15.17786 -1.2e-4,-22.90741 2.1e-4,-1.125 -2e-4,-1.875 -2.6e-4,-3.09366 1.5e-4,-49.82303 -5e-5,-99.17743 3.4e-4,-148.90671 1.7e-4,-1.12485 -2.6e-4,-1.87472 -2.5e-4,-3.09259 2.5e-4,-6.15628 5e-5,-11.84463 4.4e-4,-17.94946 2.1e-4,-1.80484 -1.6e-4,-3.19315 -1.5e-4,-5.05026 1.6e-4,-25.82404 -6e-5,-51.17931 -1.3e-4,-76.99704 -1.2e-4,-2.90726 0.24382,-5.38554 -0.0852,-7.78526 -0.22487,-1.64006 -1.24894,-3.17055 -2.07497,-5.06047 -3.70306,-3.31005 -7.437042,-5.34432 -11.467976,-1.28313 -3.520862,3.54732 -5.784584,3.16072 -7.433319,-1.62918 -0.253681,-0.73699 -1.658173,-1.07784 -2.53043,-1.60188 -0.46289,0.77841 -1.154423,1.50834 -1.332271,2.34718 -0.23584,1.11235 -0.07044,2.30978 -0.396527,3.47246 -0.744507,0.002 -1.169944,0.002 -1.595379,0.002 z"
   id="path3" />
<path
   fill="#000000"
   opacity="1"
   stroke="none"
   d="m 106.40792,568.27428 c 0.33193,3.77026 0.85739,7.5357 0.95232,11.31195 0.15906,6.3266 -0.0315,12.66198 0.12163,18.98889 0.024,0.99219 1.08406,1.95923 1.87436,2.638 0.62855,-0.2887 1.04782,-0.27753 1.75637,0.1286 0.28907,0.57581 0.28884,0.75659 0.22024,1.29999 -4.37613,2.40759 -8.49921,5.50769 -13.026205,6.30011 -13.656174,2.39032 -27.449765,2.74145 -41.068549,-0.74951 -1.00328,-0.25721 -2.113504,-0.99115 -2.701284,-1.83338 -4.519821,-6.47638 -8.810782,-13.11578 -13.454781,-19.49939 -0.949071,-1.30456 -3.086814,-1.74438 -4.677572,-3.04059 -3.76e-4,-3.81762 1.92e-4,-7.17749 0.357587,-10.5025 1.735559,-0.46515 4.248067,-0.86487 4.30267,-1.48205 0.281636,-3.18348 -0.197878,-6.42395 -0.1685,-9.64228 0.06548,-7.17346 0.299709,-14.34521 0.41623,-21.51843 0.05858,-3.60645 0.01022,-7.21466 0.01022,-11.10602 -2.003218,-0.11847 -3.460451,-0.20471 -4.942707,-0.59564 -0.367955,-0.77069 -0.710888,-1.23663 -1.053819,-1.70264 -0.08479,-0.75006 -0.169582,-1.50006 0.183738,-2.89367 0.5904,-11.46088 0.742689,-22.27808 1.309768,-33.09812 1.469242,-1.08264 3.31263,-2.08056 3.434914,-3.25729 0.420075,-4.04245 0.205055,-8.14816 0.290813,-12.22858 0.271063,-12.89737 0.768553,-25.79385 0.788649,-38.69128 0.01433,-9.20099 -0.662992,-18.40122 -0.90728,-27.6051 -0.138136,-5.20444 -0.02493,-10.41556 -0.02493,-15.90845 -1.774938,0.30636 -2.885629,0.49811 -3.997007,0.25262 -2.6e-4,-2.47745 1.67e-4,-4.51767 0.34476,-6.50323 1.006012,1.03763 1.667859,2.02054 2.329705,3.00345 0.519789,-0.21949 1.039579,-0.43894 1.559367,-0.65842 0.352573,-6.62625 0.705145,-13.25253 1.08858,-20.4588 -2.531663,0.50174 -3.927118,0.77829 -5.323116,0.61749 -1.11e-4,-2.47809 3.19e-4,-4.51886 0.367855,-6.52197 2.940256,1.13821 4.645197,0.66235 4.596674,-2.49079 -0.03807,-2.47406 -0.100003,-4.97033 -0.455417,-7.41247 -0.895747,-6.15497 2.739434,-12.776 -1.887896,-18.5477 -0.03189,-0.0398 0.173891,-0.25757 0.253184,-0.40082 3.615593,-6.53177 1.921528,-13.62912 2.004127,-20.48623 0.113792,-9.44663 -0.745264,-18.92493 -0.226641,-28.33674 0.202824,-3.68081 -0.731036,-5.20581 -3.650425,-6.61554 -4.14e-4,-0.24932 5.1e-4,-0.74795 0.335101,-0.90002 1.087479,-1.43954 1.840367,-2.72702 2.593255,-4.01453 -1.309564,-0.61215 -2.619128,-1.2243 -3.929388,-2.29687 -2.69e-4,-4.15161 1.57e-4,-7.84274 0.299833,-11.38873 1.287687,0.47097 2.276124,0.79678 3.264565,1.12255 0.09624,-0.63497 0.19248,-1.26998 0.288718,-1.90496 -1.283984,-0.12284 -2.567967,-0.24567 -3.843956,-0.77872 0.0025,-4.80179 -0.0031,-9.19333 0.357275,-13.54776 1.760754,-0.47739 4.111412,-0.68402 4.392665,-1.55722 1.608494,-4.99361 2.762883,-10.1366 3.990553,-15.24831 0.530516,-2.20894 0.413426,-4.68794 1.382061,-6.65436 2.343571,-4.75766 5.612866,-9.09614 7.623631,-13.96894 1.526434,-3.69909 2.42003,-7.48207 7.205149,-7.54506 3.703811,-0.0488 8.816253,-0.93297 10.80661,1.05415 3.283802,3.27846 5.102466,2.88599 7.866497,-0.16627 0.618587,1.1656 1.063724,1.84043 1.353981,2.57635 3.300083,8.36694 5.831508,17.14536 10.072342,25.00198 4.101692,7.59885 4.223343,15.95766 6.783149,23.7798 0.227143,0.69413 0.09533,1.85196 -0.356643,2.36799 -4.070137,4.64697 -1.005265,9.2116 -0.372856,14.00824 0.823455,6.24557 2.347679,13.582 -0.03542,18.80319 -4.063564,8.90295 2.111069,17.05951 -0.533226,25.36819 -0.13359,0.41977 0.518013,1.2164 0.969742,1.67395 2.212,2.24039 1.973373,4.22525 -0.186623,6.43601 -0.797729,0.81653 -1.274849,2.31021 -1.261329,3.48776 0.04224,3.68075 1.511619,7.77335 0.342491,10.93521 -1.586662,4.29111 -1.568764,7.54138 1.783737,10.92444 -4.025803,3.08252 -4.725693,6.23349 -2.900856,11.0123 1.391716,3.64453 0.276459,8.2464 0.276459,12.10071 -0.447212,3.05917 -0.806801,5.52896 -1.170258,7.99816 -0.09545,0.6485 -0.520305,1.49787 -0.256119,1.91163 2.910958,4.55911 1.193696,9.36886 1.065026,14.14178 -0.110764,4.10898 0.54879,8.2345 0.76934,12.35794 0.181748,3.39792 0.390068,6.8104 0.254387,10.20313 -0.07677,1.91986 -1.237091,3.8244 -1.184776,5.71579 0.120048,4.34039 0.872627,8.6629 1.002479,13.0036 0.08813,2.94607 -0.82534,5.93646 -0.627258,8.86209 0.559776,8.26785 1.671166,16.49997 2.16806,24.77002 0.474862,7.90335 -3.926929,15.70227 -0.67366,23.72 0.05676,0.13986 -0.0092,0.32883 -0.01544,0.49499 -0.301284,8.02933 -0.61837,16.05808 -0.895187,24.08829 -0.106361,3.08533 -0.698723,6.30505 -0.03538,9.22888 0.888984,3.91834 2.781563,7.60901 4.244387,11.39704 3.21226,8.31836 4.3089,16.92456 3.8886,25.81775 -0.0749,1.58465 1.23187,3.23455 1.90066,4.85437 M 41.328431,513.75041 c -0.210169,-2.68695 -0.420337,-5.3739 -0.61796,-8.06225 -2.492385,0.66833 -3.128241,5.58874 -1.211468,11.77203 0.770559,-1.22003 1.310379,-2.07477 1.829428,-3.70978 m -0.703161,63.91522 c -0.696729,0.70563 -1.393458,1.41126 -2.090174,2.11695 0.560642,0.40716 1.121284,0.81439 1.681933,1.22155 0.302596,-0.9306 0.605192,-1.86126 0.408241,-3.3385 M 39.28935,499.8654 c 0.309528,-1.3103 0.619056,-2.62054 0.928584,-3.93085 -0.605697,-0.0366 -1.211394,-0.0732 -1.81709,-0.10974 0.104348,1.24433 0.208697,2.48871 0.888506,4.04059 m -0.02105,21.72083 c 0.10044,1.12982 0.20088,2.25958 0.301321,3.3894 0.605953,-0.18329 1.211906,-0.36658 1.817859,-0.54993 -0.47963,-0.9898 -0.959261,-1.97967 -2.11918,-2.83947 z"
   id="path4" />
<path
   fill="#000000"
   opacity="1"
   stroke="none"
   d="m 36.405389,584.27672 c 1.589818,0.83844 3.727561,1.27826 4.676632,2.58282 4.643999,6.38361 8.93496,13.02301 13.454781,19.49939 0.58778,0.84223 1.698004,1.57617 2.701284,1.83338 13.618784,3.49096 27.412375,3.13983 41.068549,0.74951 4.526995,-0.79242 8.650075,-3.89252 13.251715,-6.42072 0.47847,-0.76452 0.66305,-1.0459 0.84763,-1.32727 4.69909,-0.0947 9.39816,-0.18933 14.62288,0.24451 3.65474,2.17761 6.76782,3.656 9.37191,-0.30011 1.07669,-0.0934 2.15339,-0.18671 3.69297,0.26642 4.35683,0.97955 8.2446,1.52453 12.15052,1.73938 0.67971,0.0374 1.43603,-1.31812 2.15698,-2.03028 1.40002,-0.0934 2.80004,-0.18676 4.67699,0.27356 2.11415,0.99976 3.75094,1.83393 5.38865,1.83576 59.05753,0.066 118.11516,0.0674 177.1726,-0.034 1.25506,-0.002 2.50793,-1.31213 3.76181,-2.01196 16.16305,-0.84674 32.33389,-0.74518 47.36441,6.07062 8.05557,3.65295 15.38964,8.8955 23.05777,13.40625 0.77294,0.45459 1.60455,0.8095 2.94827,0.81378 0.9024,-2.25373 1.55139,-4.10639 1.57889,-5.9682 0.11691,-7.91681 0.0497,-15.83631 0.0497,-24.47388 2.07709,0.70373 3.23544,1.23877 4.4519,1.47552 1.93827,0.37745 4.17707,1.27723 5.82486,0.67878 4.27414,-1.55237 7.43058,-0.9303 9.82749,3.02075 0.19641,0.32379 0.77557,0.41534 1.37024,0.71094 0.35299,-1.36078 0.64856,-2.50013 0.94415,-3.63953 0.58435,4.75409 0.44583,9.40497 0.67078,14.03815 0.0655,1.34826 1.16946,2.64605 1.79739,3.96698 0.0558,1.07257 0.11169,2.1452 -0.25711,3.67974 -0.85932,1.68488 -1.29398,2.90778 -1.72867,4.13068 0.23315,0.0619 0.46631,0.12384 0.69946,0.18573 0.41602,-0.66241 0.83203,-1.32489 1.24808,-1.9873 0.12647,1.60485 0.25287,3.20977 0.38712,4.91363 5.81207,-3.70849 11.43475,-7.29608 17.63067,-10.63629 1.65778,0.11511 2.88715,0.26947 3.80463,-0.19379 9.91186,-5.00482 20.46084,-7.42053 31.47888,-8.1762 0.98953,-0.0679 1.90204,-1.25879 2.85031,-1.92823 0.75644,-0.10284 1.51288,-0.20562 2.63559,-0.18664 1.96726,0.81476 3.56268,2.09442 5.17011,2.10968 15.82357,0.15051 31.65023,-0.0204 47.47372,0.13672 8.20862,0.0815 16.41296,0.62695 24.61737,1.00451 0.54041,0.0248 1.06445,0.40521 1.59607,0.62024 -0.0351,0.60437 -0.0702,1.20868 -0.10535,1.81305 -5.47723,0 -10.9591,-0.13348 -16.42987,0.055 -2.83288,0.0977 -5.6358,0.86927 -8.47058,1.15278 -4.50763,0.45086 -9.03552,1.07904 -13.54547,1.01062 -3.96957,-0.0603 -7.92474,-0.98365 -11.89041,-1.4936 -0.47229,-0.0607 -1.26575,-0.0929 -1.41339,0.15619 -2.82184,4.76087 -7.3671,2.01368 -11.13291,2.7378 -5.82824,1.12054 -8.90908,5.90362 -12.97003,10.30005 2.09439,1.02325 3.50141,1.71063 5.06717,2.47558 -0.41641,0.38812 -0.78872,0.99689 -1.06808,0.95685 -5.98926,-0.85846 -8.51593,1.90521 -8.68808,7.73614 -0.0875,2.96283 -2.32739,3.71753 -4.99643,3.43287 -2.82279,-0.30109 -5.11017,0.18145 -6.70038,3.06158 -0.69907,1.26605 -2.77243,2.75476 -3.9982,2.57941 -5.44507,-0.77924 -8.01849,3.89093 -12.05072,5.66198 -3.20193,1.40644 -6.68384,2.17536 -10.04099,3.2287 -1.02087,0.32038 -2.0823,0.55103 -3.05343,0.98377 -4.84204,2.15771 -9.98602,3.8598 -14.40625,6.68744 -5.85166,3.74347 -11.43546,3.34002 -17.43451,1.0614 -0.75827,-0.28797 -2.53149,0.0552 -2.66934,0.48224 -1.92285,5.95489 -6.82508,3.8822 -10.7948,4.01507 -0.83811,0.028 -2.25885,-1.03503 -2.48599,-1.85235 -1.0687,-3.84619 -3.94132,-3.65912 -7.05622,-4.00495 -6.72525,-0.74676 -13.45886,-1.71624 -20.04608,-3.22052 -1.89978,-0.4339 -3.07635,-3.41119 -4.99237,-4.51349 -5.97061,-3.43524 -12.16608,-6.47747 -18.20279,-9.80194 -1.23993,-0.68286 -2.04355,-2.1463 -3.27429,-2.86029 -1.61185,-0.93524 -3.45139,-2.09619 -5.18744,-2.08728 -6.01825,0.0312 -9.08438,-2.3999 -9.59726,-7.22296 -3.29004,-2.28345 -5.91202,-4.10321 -8.50775,-5.90485 0.63345,-2.20318 1.20917,-4.20556 2.17059,-7.54949 -3.95172,0.35369 -6.99826,0.87579 -10.03235,0.81109 -2.05578,-0.0438 -4.29092,-0.53613 -6.10174,-1.48468 -4.70069,-2.4624 -9.33145,-2.88159 -14.7117,-2.45953 -7.0419,0.55243 -14.22974,-0.88971 -21.36386,-1.32569 -4.06508,-0.24847 -8.14795,-0.25933 -12.22326,-0.27783 -11.65965,-0.0528 -23.32109,0.0548 -34.97879,-0.11322 -8.63409,-0.12433 -17.26219,-0.76593 -25.89527,-0.82208 -5.36847,-0.035 -11.05811,1.89026 -16.05095,0.67157 -13.42505,-3.27692 -26.32195,1.00525 -39.43888,1.51391 -5.47178,0.2121 -10.8308,2.76838 -16.28799,4.06061 -7.17616,1.69928 -14.3986,3.20301 -21.90632,4.85816 0,1.53424 0,2.90161 0,5.79059 -2.08272,-1.75586 -3.28537,-2.76972 -4.91662,-4.1449 -1.44713,0.10876 -3.80662,0.0792 -6.08406,0.49701 -6.23747,1.14428 -12.506912,2.23236 -18.613575,3.89422 -1.676929,0.45636 -2.825935,2.8526 -3.840377,3.95075 -5.769055,-1.79492 -11.230893,-3.45239 -16.656815,-5.22009 -1.012241,-0.32978 -2.124538,-0.90528 -2.769791,-1.70643 -2.060413,-2.55798 -4.295948,-4.11114 -7.752786,-2.77801 -0.611441,0.23578 -1.625883,-0.0686 -2.250868,-0.45361 -4.500954,-2.77301 -9.254563,-5.26062 -13.305093,-8.59534 -2.611376,-2.14996 -4.847006,-2.29199 -8.032047,-1.41895 -0.465312,-3.36114 -0.544248,-6.72845 -0.190208,-10.82055 0.584329,-5.20887 0.735681,-9.69287 0.887039,-14.17688 M 443.9888,622.79565 c 0,0 -0.11023,0.0657 0,0 z"
   id="path5" />
<path
   fill="#000000"
   opacity="1"
   stroke="none"
   d="m 314.40159,226.38856 c 14.15329,-0.002 27.80783,-0.11537 41.45935,0.0388 6.8682,0.0775 12.64792,5.26765 13.55393,11.60385 1.01147,7.07347 -2.3165,13.62452 -8.39451,15.7975 -2.29284,0.8197 -4.88208,1.12942 -7.33657,1.13107 -62.60123,0.0427 -125.20247,0.0204 -187.80371,-0.012 -7.68531,-0.004 -12.26185,-3.07541 -14.62099,-9.62396 -2.01396,-5.59043 -0.76286,-12.38938 4.19371,-15.5981 3.23088,-2.09156 7.68083,-3.18619 11.59201,-3.20504 44.12283,-0.2126 88.2471,-0.13002 132.37097,-0.12735 4.82861,2.9e-4 9.6572,-0.004 14.98581,-0.005 z"
   id="path6" />
<path
   fill="#000000"
   opacity="1"
   stroke="none"
   d="m 229.4015,526.40642 c -21.33244,-0.002 -42.16486,0.004 -62.99728,-0.0114 -10.30482,-0.008 -16.02668,-5.05658 -16.0245,-14.08587 0.002,-8.68232 5.8452,-13.76862 15.84676,-13.77051 54.66264,-0.0102 109.32527,-0.0151 163.98792,-0.0244 8.83163,-10e-4 17.67053,-0.23852 26.49264,0.0472 6.97815,0.22595 11.91602,4.83984 12.72958,11.07421 1.00998,7.73963 -2.12329,13.72547 -8.72805,15.97174 -2.11768,0.72016 -4.53257,0.77771 -6.81186,0.77985 -41.33173,0.039 -82.66347,0.0231 -124.49521,0.0192 z"
   id="path7" />
<path
   fill="#000000"
   opacity="1"
   stroke="none"
   d="m 304.40153,295.34544 c 8.99469,-0.0136 17.48944,-0.0577 25.98401,-0.0348 8.37378,0.0226 14.06958,5.70682 14.11862,14.00754 0.0461,7.79019 -5.77606,13.96527 -13.70508,13.97617 -55.63089,0.0763 -111.26196,0.0826 -166.8929,0.0298 -7.87599,-0.007 -13.57536,-6.14859 -13.52337,-14.05395 0.0542,-8.23807 5.77714,-13.95825 14.1042,-13.95902 46.47151,-0.004 92.94301,0.0192 139.91452,0.0342 z"
   id="path8" />
<path
   fill="#000000"
   opacity="1"
   stroke="none"
   d="m 284.40153,363.27174 c 15.48724,3.1e-4 30.47455,-0.019 45.46176,0.0105 9.11255,0.0179 14.6958,5.30212 14.71063,13.8259 0.0145,8.33557 -5.82147,14.06628 -14.66366,14.07266 -54.9529,0.0397 -109.90583,0.0402 -164.85871,-10e-4 -8.25933,-0.006 -14.62097,-6.13071 -14.65684,-13.78186 -0.0393,-8.37863 5.80994,-14.09814 14.6078,-14.10467 39.63298,-0.0294 79.26601,-0.0175 119.39902,-0.0214 z"
   id="path9" />
<path
   fill="#000000"
   opacity="1"
   stroke="none"
   d="m 106.45937,567.86742 c -0.72023,-1.21296 -2.027,-2.86286 -1.95211,-4.44751 0.4203,-8.89319 -0.67633,-17.49939 -3.8886,-25.81775 -1.46282,-3.78803 -3.355399,-7.4787 -4.244383,-11.39704 -0.663338,-2.92383 -0.07098,-6.14355 0.03538,-9.22888 0.276817,-8.03021 0.593903,-16.05896 0.895187,-24.08829 0.0062,-0.16616 0.0722,-0.35513 0.01544,-0.49499 -3.253269,-8.01773 1.148522,-15.81665 0.67366,-23.72 -0.496894,-8.27005 -1.608284,-16.50217 -2.16806,-24.77002 -0.198082,-2.92563 0.715386,-5.91602 0.627258,-8.86209 -0.129852,-4.3407 -0.882431,-8.66321 -1.002479,-13.0036 -0.05231,-1.89139 1.108002,-3.79593 1.184776,-5.71579 0.135681,-3.39273 -0.07264,-6.80521 -0.254387,-10.20313 -0.22055,-4.12344 -0.880104,-8.24896 -0.76934,-12.35794 0.12867,-4.77292 1.845932,-9.58267 -1.065026,-14.14178 -0.264186,-0.41376 0.160668,-1.26313 0.256119,-1.91163 0.363457,-2.4692 0.723046,-4.93899 1.170258,-7.99816 0,-3.85431 1.115257,-8.45618 -0.276459,-12.10071 -1.824837,-4.77881 -1.124947,-7.92978 2.900856,-11.0123 -3.352501,-3.38306 -3.370399,-6.63333 -1.783737,-10.92444 1.169128,-3.16186 -0.300247,-7.25446 -0.342491,-10.93521 -0.01352,-1.17755 0.4636,-2.67123 1.261329,-3.48776 2.159996,-2.21076 2.398619,-4.19562 0.186623,-6.43601 -0.451729,-0.45755 -1.103332,-1.25418 -0.969742,-1.67395 2.644295,-8.30868 -3.530338,-16.46524 0.533226,-25.36819 2.383103,-5.22119 0.858879,-12.55762 0.03542,-18.80319 -0.632409,-4.79664 -3.697281,-9.36127 0.372856,-14.00824 0.451973,-0.51603 0.583786,-1.67386 0.356643,-2.36799 -2.559806,-7.82214 -2.681457,-16.18095 -6.783149,-23.7798 -4.240823,-7.85662 -6.772248,-16.63504 -10.072331,-25.00198 -0.290257,-0.73592 -0.735394,-1.41075 -1.353981,-2.57635 -2.764031,3.05226 -4.582695,3.44473 -7.866497,0.16627 -1.990357,-1.98712 -7.102799,-1.10295 -10.80661,-1.05415 -4.785119,0.063 -5.678715,3.84597 -7.205149,7.54506 -2.010765,4.8728 -5.28006,9.21128 -7.623631,13.96894 -0.968635,1.96642 -0.851545,4.44542 -1.382061,6.65436 -1.22767,5.11171 -2.382059,10.2547 -3.990553,15.24831 -0.281253,0.8732 -2.631911,1.07983 -4.393985,1.08908 -0.724844,-6.19688 -1.082517,-11.88847 -1.440189,-17.58008 -0.07663,-4.69578 -0.153265,-9.39158 0.266015,-14.53975 1.449154,-0.93152 2.402394,-1.41066 3.355633,-1.88981 -1.197427,-0.52022 -2.394854,-1.04044 -3.592282,-1.56064 -0.08289,-3.7022 -0.165782,-7.40438 0.257424,-11.5531 2.353349,0.0462 4.200603,0.53895 6.592593,1.17703 4.245532,-5.08957 8.78164,-10.52748 13.847539,-16.60051 -0.104753,-0.66698 -0.380476,-2.42253 -0.656198,-4.17809 5.700096,-0.0611 11.400192,-0.12222 17.587391,0.32493 1.20895,1.54713 1.819275,3.36579 2.672264,3.48779 3.407718,0.48739 6.938537,0.15956 10.326515,0.72073 1.758961,0.29135 4.020477,1.42647 4.799393,2.86179 1.214679,2.23832 1.662544,4.0731 4.978157,3.05688 1.006416,-0.30847 3.717003,1.55811 3.991661,2.79582 1.802314,8.12195 3.096854,16.35526 4.707294,24.52259 0.23793,1.20669 1.27004,2.25679 1.93608,3.75529 6.6e-4,1.12775 -5e-5,1.87952 -0.34706,2.69107 -2.32036,1.74465 -2.4233,3.0952 0.34691,4.40155 0.002,4.94805 -0.12668,9.43206 0.0417,13.90488 0.14617,3.88367 0.62817,7.7547 0.96174,11.63132 3.7e-4,1.38833 7.4e-4,2.77664 -0.29614,4.87536 -0.0996,6.51474 0.0981,12.31916 0.29579,18.12354 4.3e-4,0.74991 8.5e-4,1.49978 -0.29621,2.91882 -0.43297,1.64545 -0.68658,2.62168 -0.68698,3.59805 -0.0195,47.10126 -0.0258,94.20255 0.0247,141.30378 0.001,1.39343 0.62501,2.78625 0.95851,4.17935 4.1e-4,0.75 8.1e-4,1.5 -0.29625,2.91913 -0.0994,8.1401 0.0986,15.61105 0.29669,23.08203 3.7e-4,0.44394 7.5e-4,0.88785 -0.29632,1.95889 -0.0994,7.09845 0.0985,13.56983 0.29654,20.04117 3.1e-4,0.74939 6.2e-4,1.49878 -0.29658,2.91717 -0.43076,1.31122 -0.67972,1.95331 -0.68048,2.59571 -0.023,19.27112 -0.0397,38.54236 0.0192,57.81335 0.004,1.2251 0.62406,2.44843 0.95754,3.67255 4.3e-4,0.44446 8.6e-4,0.88891 -0.26891,1.89624 -0.0903,2.07727 0.0895,3.59167 0.26941,5.10602 5.1e-4,0.74884 0.001,1.49768 -0.26863,2.85089 -0.0907,2.11859 0.0887,3.63269 0.26808,5.14685 -0.29708,3.3938 -0.59417,6.78754 -0.94272,10.58826 z"
   id="path10" />
<path
   fill="#000000"
   opacity="1"
   stroke="none"
   d="m 190.40153,459.29039 c -8.99362,-0.004 -17.48738,0.0198 -25.98085,-0.0188 -7.84013,-0.0356 -14.00342,-6.3277 -14.03606,-14.25397 -0.0339,-8.23675 5.23427,-13.8283 13.48149,-13.83734 46.46375,-0.051 92.92766,-0.0458 139.39135,0.0282 8.11422,0.0129 13.6867,5.8522 13.74847,13.89642 0.0608,7.92075 -6.09842,14.15485 -14.18814,14.16233 -37.30541,0.0344 -74.61084,0.0204 -112.41626,0.0231 z"
   id="path11" />
<path
   fill="#000000"
   opacity="1"
   stroke="none"
   d="m 663.20542,583.41905 c -1.52429,-2.77325 -2.68554,-5.85327 -4.62396,-8.32342 -3.84967,-4.90577 -4.54602,-12.01557 -1.15369,-17.4018 1.23822,-1.96612 2.50831,-3.91217 4.63166,-7.21869 2.08252,6.80445 5.06061,8.04492 9.60467,5.30359 0.8421,-0.50806 2.43451,-0.53259 3.32581,-0.0806 7.99969,4.05634 16.48627,6.90168 22.82959,14.22205 3.8855,4.48401 6.62518,10.56598 13.81451,12.461 3.60059,0.94909 6.13098,5.95843 9.2757,9.26861 -1.74616,4.23218 -0.37256,7.88056 5.005,12.3393 3.55426,2.9469 4.78418,8.68585 3.68933,13.09161 -1.09564,4.40888 -1.34759,9.02741 -1.98028,13.63355 -5.87695,3.42846 -11.60065,0.3244 -17.79254,-1.55445 0,2.17322 0,3.8606 0,5.88422 -1.51435,-0.60461 -2.82331,-1.12714 -4.50513,-1.63153 -0.87109,-0.47095 -1.3692,-0.96021 -1.91516,-2.10187 -1.15753,-1.73309 -2.26721,-2.81378 -3.37695,-3.89441 -0.3332,-0.006 -0.55524,-0.16559 -0.67249,-1.08905 -1.47375,-2.0365 -2.94128,-3.46374 -4.40875,-4.89099 -0.49829,-0.48822 -0.99665,-0.97644 -1.54144,-2.10693 -1.44831,-2.05005 -2.8501,-3.45789 -4.2519,-4.86579 0,0 0.13764,-0.0916 0.1446,-0.40771 -1.77887,-2.0838 -3.5647,-3.85144 -5.35059,-5.61902 -0.31073,-0.0141 -0.52057,-0.16681 -0.61939,-1.06042 -1.45947,-2.04718 -2.92919,-3.49207 -4.39886,-4.93702 -0.31042,-0.0444 -0.50659,-0.21795 -0.58392,-1.11053 -1.72974,-2.3457 -3.46405,-4.10162 -5.19837,-5.85754 0,0 0.1452,-0.10138 0.14972,-0.40912 -1.70111,-2.0821 -3.4068,-3.85639 -5.11243,-5.63074 0,0 0.11933,-0.0684 0.12714,-0.38898 -1.70636,-2.08136 -3.42059,-3.8421 -5.13489,-5.60284 0,0 0.0347,-0.0514 0.023,-0.0204 z"
   id="path12" />
<path
   fill="#000000"
   opacity="1"
   stroke="none"
   d="m 445.37565,610.81615 c -0.71646,-0.85981 -1.82046,-2.1576 -1.88592,-3.50586 -0.22495,-4.63318 -0.0864,-9.28406 -0.67078,-14.03815 -0.29559,1.1394 -0.59116,2.27875 -0.94415,3.63953 -0.59467,-0.2956 -1.17383,-0.38715 -1.37024,-0.71094 -2.39691,-3.95105 -5.55335,-4.57312 -9.82749,-3.02075 -1.64779,0.59845 -3.88659,-0.30133 -5.82486,-0.67878 -1.21646,-0.23675 -2.37481,-0.77179 -4.4519,-1.47552 0,8.63757 0.0672,16.55707 -0.0497,24.47388 -0.0275,1.86181 -0.67649,3.71447 -1.42527,5.6745 -0.38568,-33.65949 -0.38568,-67.42212 -0.38568,-102.10328 1.9852,1.67682 3.47589,3.03986 5.07196,4.26569 6.17966,4.74609 12.51557,9.30042 18.51224,14.2655 1.61243,1.33503 3.14517,3.86054 3.16602,5.85584 0.23321,22.29724 0.16287,44.59759 0.0858,67.35834 m -2.49149,-24.948 c 0,0 -0.0668,-0.112 0,0 z"
   id="path13" />
<path
   fill="#000000"
   opacity="1"
   stroke="none"
   d="m 106.39756,219.2755 c -0.66467,-1.12256 -1.69678,-2.17266 -1.93471,-3.37935 -1.61044,-8.16733 -2.90498,-16.40064 -4.707294,-24.52259 -0.274658,-1.23771 -2.985245,-3.10429 -3.991661,-2.79582 -3.315613,1.01622 -3.763478,-0.81856 -4.978157,-3.05688 -0.778916,-1.43532 -3.040432,-2.57044 -4.799393,-2.86179 -3.387978,-0.56117 -6.918797,-0.23334 -10.326515,-0.72073 -0.852989,-0.122 -1.463314,-1.94066 -2.221348,-3.35208 2.418896,-0.44492 4.873974,-0.51729 7.886631,-0.9804 1.064724,-3.70314 1.571865,-7.01553 2.520546,-10.32751 2.86282,0.28593 5.304359,0.45625 7.701717,0.87779 8.357685,1.46965 9.467024,1.03121 13.854154,-5.87698 0.66676,1.57947 1.69082,3.10995 1.91569,4.75001 0.32903,2.39972 0.0851,4.87801 -0.2119,8.07958 -0.43408,15.22676 -0.57092,29.69676 -0.70776,44.16675 z"
   id="path14" />
<path
   fill="#000000"
   opacity="1"
   stroke="none"
   d="m 783.74211,597.50328 c -0.28199,-25.27106 -0.34107,-50.91937 -0.33991,-76.56775 0.005,-124.41391 0.0271,-248.82782 0.0726,-373.75772 0.25244,1.25912 0.67005,3.03419 0.67053,4.80939 0.0415,146.88315 0.0513,293.76629 0.0532,440.64944 0,1.4964 -0.13416,2.99286 -0.45642,4.86664 z"
   id="path15" />
<path
   fill="#000000"
   opacity="1"
   stroke="none"
   d="m 37.405971,279.27708 c 2.918975,1.1604 3.852835,2.6854 3.650011,6.36621 -0.518623,9.41181 0.340433,18.89011 0.226641,28.33674 -0.0826,6.85711 1.611466,13.95446 -2.004127,20.48623 -0.07929,0.14325 -0.28507,0.36106 -0.253184,0.40082 4.62733,5.7717 0.992149,12.39273 1.887896,18.5477 0.355414,2.44214 0.417345,4.93841 0.455417,7.41247 0.04852,3.15314 -1.656418,3.629 -4.598028,2.12043 -0.724297,-1.49729 -1.080134,-2.58652 -1.435971,-3.67578 -0.08332,-1.71924 -0.166639,-3.43851 0.188965,-5.85627 0.585323,-2.49908 0.856432,-4.29947 0.859048,-6.10028 0.0299,-20.58383 -0.01,-41.16784 0.06275,-61.75149 0.0074,-2.09671 0.625747,-4.19123 0.960585,-6.28678 z"
   id="path16" />
<path
   fill="#000000"
   opacity="1"
   stroke="none"
   d="m 344.9503,601.03892 c -0.80289,0.83802 -2.05576,2.14801 -3.31082,2.15015 -59.05744,0.10144 -118.11507,0.1 -177.1726,0.034 -1.63771,-0.002 -3.2745,-0.836 -4.98883,-1.69086 11.88608,-0.5108 23.84921,-0.69818 35.8124,-0.70001 49.73628,-0.008 99.47256,0.0407 149.65985,0.20672 z"
   id="path17" />
<path
   fill="#000000"
   opacity="1"
   stroke="none"
   d="m 347.4087,132.2583 c -69.68945,0.009 -139.37891,0.019 -209.9326,0.0275 -2.26768,0.66361 -3.67112,1.3282 -5.07457,1.9928 -0.44444,4e-5 -0.88889,1e-4 -1.74838,-0.37998 -3.21163,-2.02607 -5.95983,-3.17356 -8.25162,0.38059 -0.44444,0 -0.88889,0 -1.74369,-0.3754 -2.35964,-0.78462 -4.30892,-1.19385 -6.2582,-1.60306 -4.0232,-0.003 -8.04642,-0.007 -12.93308,-0.012 -1.931532,0.004 -2.999609,0.0101 -4.067686,0.016 -0.840141,-0.0232 -1.680275,-0.0465 -2.939568,-0.1061 1.341538,-0.31993 3.102112,-0.85071 4.862915,-0.85148 82.387279,-0.0366 164.774579,-0.0272 247.623289,0.25468 0.46142,0.27767 0.46319,0.65648 0.46319,0.65648 z"
   id="path18" />
<path
   fill="#000000"
   opacity="1"
   stroke="none"
   d="m 55.028963,177.98939 c 0.646934,1.89179 0.922657,3.64734 1.02741,4.31432 -5.065899,6.07303 -9.602007,11.51094 -13.847539,16.60051 -2.39199,-0.63808 -4.239244,-1.13083 -6.473588,-1.62482 -1.38591,-13.40326 4.523035,-19.3475 19.293717,-19.29001 z"
   id="path19" />
<path
   fill="#000000"
   opacity="1"
   stroke="none"
   d="m 770.50877,131.90492 c -17.2627,0.29717 -34.8982,0.36966 -52.53363,0.36955 -68.71533,-4.1e-4 -137.43073,-0.0239 -206.66129,-0.0577 1.75467,-0.31015 4.02436,-0.8546 6.29441,-0.856 82.68786,-0.0512 165.37573,-0.0538 248.06359,-0.0452 1.48804,1.5e-4 2.97614,0.21609 4.83692,0.58935 z"
   id="path20" />
<path
   fill="#000000"
   opacity="1"
   stroke="none"
   d="m 36.404973,529.27672 c 1.457232,0.0862 2.914465,0.17248 4.917683,0.29095 0,3.89136 0.04836,7.49957 -0.01022,11.10602 -0.116521,7.17322 -0.350748,14.34497 -0.41623,21.51843 -0.02938,3.21833 0.450136,6.4588 0.1685,9.64228 -0.0546,0.61718 -2.567111,1.0169 -4.30405,1.01312 -0.358474,-9.14917 -0.302027,-17.79517 -0.407154,-26.43927 -0.02087,-1.71607 -0.661255,-3.4245 -1.015958,-5.13648 -0.08825,-0.75152 -0.176492,-1.50311 0.166226,-2.88531 0.587709,-3.45709 0.744457,-6.28339 0.901203,-9.10974 z"
   id="path21" />
<path
   fill="#000000"
   opacity="1"
   stroke="none"
   d="m 35.214924,359.72771 c 0.475539,0.63345 0.831376,1.72268 1.188567,3.18231 9.24e-4,2.41113 4.94e-4,4.4519 -6.09e-4,7.30554 1.39e-4,1.56378 9.48e-4,2.3147 0.0011,3.46515 -7.5e-5,1.46503 5.31e-4,2.53052 6.9e-5,4.05029 -2.57e-4,3.48639 5.55e-4,6.5185 0.0014,9.5506 -4.27e-4,2.04025 -8.54e-4,4.08047 -0.0021,7.01901 -1.7e-5,32.92545 7.52e-4,64.95261 0.0015,96.97977 -0.15229,10.81726 -0.304579,21.63446 -0.769887,32.73413 -0.39978,-22.1582 -0.536617,-44.59863 -0.561363,-67.03922 -0.03558,-32.26388 0.01044,-64.52786 0.141327,-97.24758 z"
   id="path22" />
<path
   fill="#000000"
   opacity="1"
   stroke="none"
   d="m 37.405557,279.02775 c -0.334424,2.34488 -0.952763,4.4394 -0.960171,6.53611 -0.07272,20.58365 -0.03285,41.16766 -0.06275,61.75149 -0.0026,1.80081 -0.273725,3.6012 -0.72794,5.68775 -0.393578,-19.64716 -0.515314,-39.58023 -0.555412,-59.51346 -0.04379,-21.76932 -0.01201,-43.53879 0.108497,-65.76367 0.479339,5.23613 0.837012,10.92772 1.196004,17.08749 0.0068,4.85968 0.01237,9.25122 0.0089,14.30444 -0.0085,0.82929 -0.008,0.99689 -0.0075,1.16452 -4.27e-4,3.69117 -8.53e-4,7.3823 -0.0019,11.92575 0.333867,2.59211 0.668367,4.33185 1.002868,6.07163 10e-7,0 -9.23e-4,0.49863 -5.09e-4,0.74795 z"
   id="path23" />
<path
   fill="#000000"
   opacity="1"
   stroke="none"
   d="m 500.96055,601.17845 c -0.50833,0.75623 -1.42084,1.94714 -2.41037,2.01502 -11.01804,0.75567 -21.56702,3.17138 -31.47888,8.1762 -0.91748,0.46326 -2.14685,0.3089 -3.44919,0.17401 11.33075,-6.66339 23.82037,-9.63 37.33844,-10.36523 z"
   id="path24" />
<path
   fill="#000000"
   opacity="1"
   stroke="none"
   d="m 35.217081,541.7274 c 0.475166,1.25635 1.115552,2.96478 1.136421,4.68085 0.105127,8.6441 0.04868,17.2901 0.05033,26.40442 8.13e-4,3.82879 2.45e-4,7.18866 6.16e-4,11.00628 -0.150413,4.94178 -0.301765,9.42578 -0.762524,14.19129 -0.388039,-18.42145 -0.46667,-37.12427 -0.424839,-56.28284 z"
   id="path25" />
<path
   fill="#000000"
   opacity="1"
   stroke="none"
   d="m 83.404123,167.27794 c -0.507145,3.31239 -1.014286,6.62478 -1.934242,10.02928 -0.66621,-4.31236 -0.919609,-8.71683 -1.078266,-13.57604 0.520176,-0.45489 0.945613,-0.45506 1.962276,-0.22422 0.744228,1.41101 0.897228,2.59099 1.050232,3.77098 z"
   id="path26" />
<path
   fill="#000000"
   opacity="1"
   stroke="none"
   d="m 111.85951,161.19609 c -0.36653,-0.71207 -0.50917,-1.6082 -0.14222,-1.9389 2.06576,-1.86173 11.27371,-1.03968 13.62355,1.48159 -4.29946,0.42739 -8.66079,0.48085 -13.48133,0.45731 z"
   id="path27" />
<path
   fill="#000000"
   opacity="1"
   stroke="none"
   d="m 153.95409,600.97587 c -0.2738,0.85004 -1.03012,2.20557 -1.70983,2.16816 -3.90592,-0.21485 -7.79369,-0.75983 -11.76519,-1.59876 4.29091,-0.50641 8.65939,-0.60687 13.47502,-0.5694 z"
   id="path28" />
<path
   fill="#000000"
   opacity="1"
   stroke="none"
   d="m 135.96737,601.0023 c -2.17069,4.09204 -5.28377,2.61365 -8.48883,0.56989 2.63449,-0.49829 5.34496,-0.60205 8.48883,-0.56989 z"
   id="path29" />
<path
   fill="#000000"
   opacity="1"
   stroke="none"
   d="m 663.23405,583.77806 c 1.66266,1.42218 3.37689,3.18292 5.0498,5.32434 -1.6936,-1.40814 -3.34588,-3.1969 -5.0498,-5.32434 z"
   id="path30" />
<path
   fill="#000000"
   opacity="1"
   stroke="none"
   d="m 684.06333,608.76549 c 1.67597,1.43878 3.4618,3.20642 5.1966,5.36017 -1.72956,-1.41974 -3.40808,-3.22559 -5.1966,-5.36017 z"
   id="path31" />
<path
   fill="#000000"
   opacity="1"
   stroke="none"
   d="m 668.24088,589.77049 c 1.65491,1.43518 3.3606,3.20947 5.01282,5.36542 -1.68957,-1.42102 -3.3258,-3.22363 -5.01282,-5.36542 z"
   id="path32" />
<path
   fill="#000000"
   opacity="1"
   stroke="none"
   d="m 673.20902,595.80852 c 1.67817,1.41858 3.41248,3.1745 5.12677,5.31402 -1.70355,-1.4032 -3.38708,-3.18994 -5.12677,-5.31402 z"
   id="path33" />
<path
   fill="#000000"
   opacity="1"
   stroke="none"
   d="m 444.8061,210.64246 c -0.12045,-3.29302 -0.0978,-7.0107 0.18381,-11.03429 0.15906,3.33258 0.0591,6.97111 -0.18381,11.03429 z"
   id="path34" />
<path
   fill="#000000"
   opacity="1"
   stroke="none"
   d="m 695.08348,621.75157 c 1.33673,1.11182 2.80426,2.53906 4.25225,4.35986 -1.38684,-1.08575 -2.75421,-2.56506 -4.25225,-4.35986 z"
   id="path35" />
<path
   fill="#000000"
   opacity="1"
   stroke="none"
   d="m 689.21354,614.79784 c 1.34766,1.07348 2.74945,2.48132 4.13696,4.27258 -1.37054,-1.05707 -2.72668,-2.49768 -4.13696,-4.27258 z"
   id="path36" />
<path
   fill="#000000"
   opacity="1"
   stroke="none"
   d="m 679.04899,602.76585 c 1.35584,1.11835 2.82556,2.56324 4.26953,4.40601 -1.40234,-1.09461 -2.77899,-2.58698 -4.26953,-4.40601 z"
   id="path37" />
<path
   fill="#000000"
   opacity="1"
   stroke="none"
   d="m 36.37995,528.97203 c -0.131723,3.13104 -0.288471,5.95734 -0.750837,9.05249 -0.385024,-3.10858 -0.464429,-6.48602 -0.42341,-10.30927 0.463358,0.0202 0.806291,0.48609 1.174247,1.25678 z"
   id="path38" />
<path
   fill="#000000"
   opacity="1"
   stroke="none"
   d="m 35.241131,209.64577 c 1.315114,0.15472 2.512541,0.67494 3.709968,1.19516 -0.953239,0.47915 -1.906479,0.95829 -3.234617,1.43722 -0.44761,-0.75578 -0.520323,-1.51135 -0.475351,-2.63238 z"
   id="path39" />
<path
   fill="#000000"
   opacity="1"
   stroke="none"
   d="m 505.00816,132.36433 c -0.15799,5.97693 -2.82035,0.004 -4.63349,0.84464 1.16578,-0.34198 2.70231,-0.62934 4.63349,-0.84464 z"
   id="path40" />
<path
   fill="#000000"
   opacity="1"
   stroke="none"
   d="m 445.95027,197.2073 c -0.84766,-0.59992 -1.46537,-1.39151 -2.0831,-2.18309 0.87082,-0.24861 1.74167,-0.49723 2.96783,-0.7469 0.0187,0.9121 -0.31808,1.82523 -0.88473,2.92999 z"
   id="path41" />
<path
   fill="#000000"
   opacity="1"
   stroke="none"
   d="m 700.14329,627.73198 c 1.00043,0.76483 2.11011,1.84552 3.20789,3.3194 -1.04084,-0.73902 -2.06971,-1.87128 -3.20789,-3.3194 z"
   id="path42" />
<path
   fill="#000000"
   opacity="1"
   stroke="none"
   d="m 347.878,132.26695 c -0.4693,-0.009 -0.47107,-0.38746 -0.47092,-0.57687 2.30738,-0.13878 4.61454,-0.0881 7.28009,0.21786 -1.87436,0.2928 -4.10711,0.33023 -6.80917,0.35901 z"
   id="path43" />
<path
   fill="#000000"
   opacity="1"
   stroke="none"
   d="m 445.34513,616.95811 c -0.5123,0.99042 -0.92831,1.6529 -1.34433,2.31531 -0.23315,-0.0619 -0.46631,-0.12384 -0.69946,-0.18573 0.43469,-1.2229 0.86935,-2.4458 1.63809,-3.73627 0.39002,0.38117 0.44599,0.8299 0.4057,1.60669 z"
   id="path44" />
<path
   fill="#000000"
   opacity="1"
   stroke="none"
   d="m 492.0717,134.356 c 0.0591,0.8633 -0.21268,1.66486 -0.48444,2.46642 -0.58044,-0.41548 -1.16089,-0.83097 -2.0094,-1.41756 0.5423,-0.48425 1.35263,-0.79741 2.49384,-1.04886 z"
   id="path45" />
<path
   fill="#000000"
   opacity="1"
   stroke="none"
   d="m 781.37229,600.60826 c 0.41932,-0.30573 0.92463,-0.32593 1.80878,-0.36316 0.6377,0.65308 0.89655,1.32318 1.66034,3.30017 -1.84198,-1.44366 -2.61261,-2.04767 -3.46912,-2.93701 z"
   id="path46" />
<path
   fill="#000000"
   opacity="1"
   stroke="none"
   d="m 466.80079,174.4864 c 0.22595,-0.49121 0.74201,-1.05769 1.44315,-1.38247 -0.26093,0.59686 -0.707,0.95202 -1.44315,1.38247 z"
   id="path47" />
<path
   fill="#000000"
   opacity="1"
   stroke="none"
   d="m 358.55418,161.52678 c 0.89572,-0.0968 2.09341,2e-4 3.55679,0.34021 -0.9078,0.1132 -2.0813,-0.0166 -3.55679,-0.34021 z"
   id="path48" />
<path
   fill="#000000"
   opacity="1"
   stroke="none"
   d="m 495.75352,163.18709 c 0.48602,-0.33466 1.31192,-0.60778 2.4819,-0.86127 -0.48462,0.32069 -1.31332,0.62173 -2.4819,0.86127 z"
   id="path49" />
<path
   fill="#000000"
   opacity="1"
   stroke="none"
   d="m 365.50962,162.56558 c 0.63574,-0.13403 1.512,-0.0314 2.62717,0.30452 -0.63629,0.13286 -1.51144,0.0325 -2.62717,-0.30452 z"
   id="path50" />
<path
   fill="#000000"
   opacity="1"
   stroke="none"
   d="m 496.06803,133.40501 c -0.2351,0.30985 -0.78869,0.55736 -1.65893,0.78324 0.23569,-0.29628 0.78805,-0.57093 1.65893,-0.78324 z"
   id="path51" />
<path
   fill="#000000"
   opacity="1"
   stroke="none"
   d="m 501.77729,162.15932 c 0.29764,-0.29358 0.95658,-0.52929 1.98154,-0.71202 -0.29605,0.29193 -0.95816,0.53089 -1.98154,0.71202 z"
   id="path52" />
<path
   fill="#000000"
   opacity="1"
   stroke="none"
   d="m 469.63999,172.88014 c -0.0674,-0.20463 0.11136,-0.37388 0.5149,-0.55414 0.0876,0.20015 -0.0768,0.40033 -0.5149,0.55414 z"
   id="path53" />
<path
   fill="#000000"
   opacity="1"
   stroke="none"
   d="m 112.1549,601.07982 c 0.0665,0.39538 -0.11808,0.67676 -0.52817,1.07873 -0.22529,-0.0602 -0.22506,-0.24102 -0.22486,-0.69311 0.1673,-0.34735 0.33463,-0.42353 0.75303,-0.38562 z"
   id="path54" />
<path
   fill="#020101"
   opacity="1"
   stroke="none"
   d="m 444.71641,216.60243 c -0.22882,-0.0988 -0.24084,-0.39191 -0.1416,-0.8977 0.14306,0.0947 0.22546,0.40013 0.1416,0.8977 z"
   id="path55" />

<path
   fill="#000000"
   opacity="1"
   stroke="none"
   d="m 83.845659,167.27835 c -0.59454,-1.1804 -0.74754,-2.36038 -1.172695,-3.77318 -0.265141,-1.39369 -0.430542,-2.59112 -0.194702,-3.70347 0.177848,-0.83884 0.869381,-1.56878 1.332271,-2.34719 0.872257,0.52405 2.276749,0.8649 2.53043,1.60189 1.648735,4.7899 3.912457,5.17649 7.433319,1.62918 4.030934,-4.06119 7.764918,-2.02692 11.467968,1.28312 -4.22785,7.21865 -5.337189,7.65709 -13.694874,6.18744 -2.397358,-0.42154 -4.838897,-0.59186 -7.701717,-0.87779 z"
   id="path56" />
<path
   fill="#000000"
   opacity="1"
   stroke="none"
   d="m 107.40218,426.8105 c -0.33384,-0.92444 -0.95736,-2.31726 -0.95886,-3.71069 -0.0504,-47.10123 -0.0442,-94.20252 -0.0247,-141.30378 4.1e-4,-0.97637 0.25402,-1.9526 0.68639,-3.22311 0.2971,49.06015 0.2973,98.41455 0.29715,148.23758 z"
   id="path57" />
<path
   fill="#000000"
   opacity="1"
   stroke="none"
   d="m 106.39893,219.65144 c 0.13547,-14.84593 0.27231,-29.31593 0.70625,-44.08023 0.29733,25.06096 0.29754,50.41623 0.29739,76.24027 -0.33396,-3.40784 -0.81595,-7.27887 -0.96212,-11.16254 -0.16835,-4.47282 -0.04,-8.95683 -0.0411,-14.30405 -8.2e-4,-1.93277 -10e-4,-2.99746 -0.001,-4.06215 7.1e-4,-0.75178 0.001,-1.50355 7.6e-4,-2.6313 z"
   id="path58" />
<path
   fill="#000000"
   opacity="1"
   stroke="none"
   d="m 107.40245,541.81053 c -0.33379,-0.75549 -0.95411,-1.97882 -0.95785,-3.20392 -0.0588,-19.27099 -0.0421,-38.54223 -0.0192,-57.81335 7.6e-4,-0.6424 0.24972,-1.28449 0.67993,-2.22101 0.29709,20.72699 0.29725,41.74829 0.29709,63.23828 z"
   id="path59" />
<path
   fill="#000000"
   opacity="1"
   stroke="none"
   d="m 107.40257,452.81157 c -0.19835,-7.00223 -0.39641,-14.47318 -0.2976,-22.23828 0.29721,7.06042 0.29756,14.41497 0.2976,22.23828 z"
   id="path60" />
<path
   fill="#000000"
   opacity="1"
   stroke="none"
   d="m 107.40286,474.81184 c -0.19836,-6.0028 -0.39635,-12.47418 -0.29748,-19.23968 0.29719,6.06094 0.29751,12.41604 0.29748,19.23968 z"
   id="path61" />
<path
   fill="#000000"
   opacity="1"
   stroke="none"
   d="m 107.40228,274.8112 c -0.19813,-5.33642 -0.39582,-11.14084 -0.29683,-17.2391 0.29687,5.39447 0.29707,11.08282 0.29683,17.2391 z"
   id="path62" />
<path
   fill="#000000"
   opacity="1"
   stroke="none"
   d="m 122.7773,134.27888 c 1.91602,-3.55387 4.66422,-2.40638 7.54252,-0.38038 -2.33444,0.38006 -4.7506,0.38008 -7.54252,0.38038 z"
   id="path63" />
<path
   fill="#000000"
   opacity="1"
   stroke="none"
   d="m 114.47917,132.6736 c 1.86975,0.0363 3.81903,0.44554 5.84533,1.23016 -1.87058,-0.0355 -3.81819,-0.44639 -5.84533,-1.23016 z"
   id="path64" />
<path
   fill="#000000"
   opacity="1"
   stroke="none"
   d="m 132.79672,134.2787 c 1.00826,-0.66475 2.4117,-1.32934 4.21086,-1.98904 -1.00809,0.66632 -2.41188,1.32774 -4.21086,1.98904 z"
   id="path65" />
<path
   fill="#000000"
   opacity="1"
   stroke="none"
   d="m 97.462335,132.64802 c 1.004616,-0.34921 2.072693,-0.35511 3.541255,-0.35318 -0.44731,2.74321 -1.798907,2.64142 -3.541255,0.35318 z"
   id="path66" />
<path
   fill="#000000"
   opacity="1"
   stroke="none"
   d="m 107.40299,548.86449 c -0.18022,-1.09742 -0.36009,-2.61182 -0.27038,-4.35572 0.26996,1.15985 0.27035,2.54938 0.27038,4.35572 z"
   id="path67" />
<path
   fill="#100000"
   opacity="1"
   stroke="none"
   d="m 107.40263,556.86235 c -0.17995,-1.09735 -0.35935,-2.61145 -0.2692,-4.35565 0.26963,1.1596 0.26969,2.54925 0.2692,4.35565 z"
   id="path68" />
<path
   fill="#000000"
   opacity="1"
   stroke="none"
   d="m 36.819636,491.2776 c -0.415557,-32.02438 -0.416326,-64.05154 -0.415621,-96.53979 1.112163,-0.6528 2.222854,-0.84455 3.997792,-1.15091 0,5.49289 -0.113211,10.70401 0.02493,15.90845 0.244288,9.20388 0.921614,18.40411 0.90728,27.6051 -0.0201,12.89743 -0.517586,25.79391 -0.788649,38.69128 -0.08576,4.08042 0.129262,8.18613 -0.290813,12.22858 -0.122284,1.17673 -1.965672,2.17465 -3.434914,3.25729 z"
   id="path69" />
<path
   fill="#000000"
   opacity="1"
   stroke="none"
   d="m 36.74956,387.33629 c -0.344977,-3.08679 -0.345789,-6.1189 7.05e-4,-9.66547 2.323143,-2.20077 2.421102,-3.55133 -0.345625,-4.38965 -8.1e-4,-0.75091 -0.0016,-1.50183 -0.0012,-2.62829 1.396669,-0.65207 2.792124,-0.92862 5.323787,-1.43036 -0.383435,7.20627 -0.736007,13.83255 -1.08858,20.4588 -0.519788,0.21948 -1.039578,0.43893 -1.559367,0.65842 -0.661846,-0.98291 -1.323693,-1.96582 -2.329705,-3.00345 z"
   id="path70" />
<path
   fill="#000000"
   opacity="1"
   stroke="none"
   d="m 41.338816,514.14061 c -0.529434,1.24481 -1.069254,2.09955 -1.839813,3.31958 -1.916773,-6.18329 -1.280917,-11.1037 1.205196,-11.77136 0.203895,2.68768 0.414063,5.37463 0.634617,8.45178 z"
   id="path71" />
<path
   fill="#000000"
   opacity="1"
   stroke="none"
   d="m 37.740657,278.12773 c -0.669092,-1.58771 -1.003592,-3.32745 -1.336764,-5.45911 1.310892,0.22028 2.620456,0.83243 3.93002,1.44458 -0.752888,1.28751 -1.505776,2.57499 -2.593256,4.01453 z"
   id="path72" />
<path
   fill="#000000"
   opacity="1"
   stroke="none"
   d="m 40.875044,577.93895 c -0.05282,1.20392 -0.355419,2.13458 -0.658019,3.06518 -0.560645,-0.40716 -1.121287,-0.81439 -1.681936,-1.22155 0.696723,-0.70569 1.393452,-1.41132 2.339955,-1.84363 z"
   id="path73" />
<path
   fill="#000000"
   opacity="1"
   stroke="none"
   d="m 39.001619,499.71165 c -0.392078,-1.39813 -0.496427,-2.64251 -0.600775,-3.88684 0.605696,0.0366 1.211393,0.0732 1.81709,0.10974 -0.309528,1.31031 -0.619056,2.62055 -1.216315,3.7771 z"
   id="path74" />
<path
   fill="#000000"
   opacity="1"
   stroke="none"
   d="m 36.704358,260.4276 c -0.299746,-0.31281 -0.300242,-0.48041 -0.299703,-0.89945 1.285019,-0.12863 2.569002,-0.006 3.852986,0.11704 -0.09624,0.63498 -0.192476,1.26999 -0.288718,1.90496 -0.988441,-0.32577 -1.976878,-0.65158 -3.264565,-1.12255 z"
   id="path75" />
<path
   fill="#000000"
   opacity="1"
   stroke="none"
   d="m 39.608446,521.52122 c 0.819774,0.92481 1.299405,1.91468 1.779035,2.90448 -0.605953,0.18335 -1.211906,0.36664 -1.817859,0.54993 -0.100441,-1.12982 -0.200881,-2.25958 0.03882,-3.45441 z"
   id="path76" />
<path
   fill="#000000"
   opacity="1"
   stroke="none"
   d="m 443.93366,622.82854 c -0.0551,0.0328 0.0551,-0.0328 0,0 z"
   id="path77" />
<path
   fill="#000000"
   opacity="1"
   stroke="none"
   d="m 106.05187,222.34251 c 0.34649,1.00492 0.34669,2.06961 0.34629,3.53347 -2.76959,-0.43827 -2.66665,-1.78882 -0.34629,-3.53347 z"
   id="path78" />
<path
   fill="#000000"
   opacity="1"
   stroke="none"
   d="m 442.85075,585.81212 c -0.0334,-0.056 0.0334,0.056 0,0 z"
   id="path79" />
<path
   fill="#000000"
   opacity="1"
   stroke="none"
   d="m 36.403959,373.68071 c 2.767408,0.43878 2.669449,1.78934 0.347373,3.53583 -0.346842,-1.00531 -0.347448,-2.0708 -0.347373,-3.53583 z"
   id="path80" />
<path
   fill="#000000"
   opacity="1"
   stroke="none"
   d="m 439.19566,431.04179 c 8.69098,-14.47799 16.4783,-29.40283 20.65356,-45.87005 3.44632,-13.59241 5.91361,-27.44175 9.60483,-40.96152 6.95511,-25.4744 20.70688,-46.93741 40.96439,-63.81888 22.25808,-18.54874 45.67584,-18.12988 68.03637,0.49976 24.32038,20.26251 38.30207,46.44336 44.02576,77.33737 3.64447,19.67181 7.47321,39.34415 18.01764,56.78787 4.30548,7.12268 9.22705,13.88495 14.08783,20.65357 1.70868,2.37933 2.54919,4.55932 0.70953,7.00549 -4.64813,6.18045 -9.40948,12.27582 -14.76892,18.3938 -5.37475,-3.05979 -7.24255,-7.78952 -7.02991,-12.99982 0.52808,-12.93726 -4.77539,-24.95746 -5.45556,-37.73846 -0.29315,-5.50766 -3.0282,-10.88535 -4.94995,-17.31229 2.63818,0.83835 4.16748,1.32431 6.37658,2.02631 -1.22271,-3.54844 -2.22235,-6.44941 -3.22192,-9.35041 -0.29736,0.40992 -0.59473,0.81983 -0.89209,1.22974 -3.39386,-1.14069 -6.78772,-2.28137 -10.47668,-3.52124 -1.21253,2.50076 -2.38276,4.68719 -3.35279,6.95917 -2.47314,5.79269 -2.9364,5.67016 -7.30267,1.47845 -2.67963,-2.57251 -5.1153,-7.68661 -10.65119,-3.88528 1.00635,3.69922 2.40497,7.20749 0.52936,10.88858 -1.05285,2.06646 -1.80865,4.28433 -2.94415,6.60101 -0.41528,0.72318 -0.58472,1.2793 -0.90112,2.17154 -2.38233,5.77832 -4.61768,11.22049 -7.12659,16.85944 -1.83594,1.64575 -3.39825,3.09472 -4.90448,4.19287 10.71649,-16.70417 14.65027,-34.59751 12.74493,-54.72745 -1.97796,2.53616 -3.34484,4.42087 -4.84594,6.19183 -9.05347,10.68143 -23.85102,11.02362 -31.86463,0.76508 -5.0791,-6.50199 -3.34289,-13.50565 4.31513,-16.42807 3.67914,-1.40402 7.59344,-2.19528 11.40728,-3.24201 5.16443,-1.41735 10.33466,-2.81359 16.15076,-4.3952 -10.7608,-14.40576 -24.3728,-23.51666 -39.80615,-30.15002 -1.21442,-0.52198 -3.35559,0.0772 -4.61862,0.86892 -9.38849,5.88538 -18.8562,11.67987 -27.88748,18.08335 -4.06748,2.884 -7.1933,7.09607 -11.19388,11.16018 2.63327,0.67911 4.25192,1.03632 5.83392,1.51481 7.43057,2.24749 15.07733,3.98312 22.21378,6.94509 7.68075,3.18787 8.68118,9.8043 3.27801,16.08564 -6.87854,7.99643 -19.07101,9.31369 -27.34033,2.73602 -2.98587,-2.37509 -5.55933,-5.26868 -8.72299,-8.31244 -0.19354,1.79172 -0.39997,3.06986 -0.45954,4.35477 -0.45709,9.85965 0.51053,19.5816 2.54532,29.12335 -5.66076,-2.58557 -4.25573,4.03903 -6.25311,4.7139 -3.88715,-1.3776 -7.18127,-3.65247 -10.26376,-3.39493 -5.52988,0.4621 -8.18695,-3.70868 -11.87503,-5.94736 -3.0994,-1.88128 -5.1435,-5.86258 -9.45484,-2.76968 -2.99679,2.1499 -6.62057,4.0285 -8.53451,6.96133 -4.14847,6.35712 -7.30597,13.35462 -11.06226,19.98053 -0.59283,1.04569 -2.1972,1.51795 -3.33389,2.25534 m 20.5928,-38.56134 c 0.49384,-0.57333 0.98764,-1.14667 1.48148,-1.71997 -0.2385,-0.19037 -0.47699,-0.38071 -0.71549,-0.57104 -0.28048,0.56927 -0.561,1.13858 -0.76599,2.29101 m 37.20108,10.31629 c 0,0 -0.1113,0.0666 0,0 M 462.88447,382.8676 c 0,0 -0.0665,-0.11163 0,0 z"
   id="path81" />
<path
   fill="#000000"
   opacity="1"
   stroke="none"
   d="m 578.16734,429.01964 c 1.56238,-1.44898 3.12469,-2.89795 5.22577,-4.33179 1.31488,3.59845 4.36425,2.22363 5.45904,1.33618 1.66413,-1.34888 3.64112,-4.08688 3.29279,-5.78522 -0.79975,-3.89926 0.2221,-6.25265 2.9815,-8.9147 2.9289,-2.82559 6.18274,-3.00024 8.09394,0.65677 1.56683,2.99796 2.84363,6.14749 4.60388,10.00833 2.75568,-3.5896 2.68835,-9.45511 8.65222,-8.33746 1.60565,1.11871 3.13635,1.8648 4.97626,2.76162 -1.09992,8.13526 4.93329,15.72855 2.03015,24.24793 -0.37244,1.09302 0.0476,2.72098 0.62506,3.82727 2.60864,4.99664 2.71936,10.06525 1.34827,15.44003 -1.04999,4.11612 -1.55536,8.37122 -2.19452,11.95618 2.29877,1.0658 3.78503,1.75488 5.2713,2.44397 -14.60797,13.86435 -31.99066,22.88016 -51.32111,27.71182 -27.38293,6.84436 -54.61548,5.42188 -80.88717,-5.12164 -27.29755,-10.95523 -47.28727,-30.52023 -62.41675,-55.41641 -2.25946,-3.71802 1.47977,-4.73847 3.18906,-7.1785 1.14758,-1.22589 1.62344,-2.25403 2.0993,-3.28217 0,0 0.0471,0.014 0.0232,0.007 1.11283,-0.74441 2.7172,-1.21667 3.31003,-2.26236 3.75629,-6.62591 6.91379,-13.62341 11.06226,-19.98053 1.91394,-2.93283 5.53772,-4.81143 8.53451,-6.96133 4.31134,-3.0929 6.35544,0.8884 9.45484,2.76968 3.68808,2.23868 6.34515,6.40946 11.87503,5.94736 3.08249,-0.25754 6.37661,2.01733 10.26376,3.39493 1.99738,-0.67487 0.59235,-7.29947 6.33673,-4.40851 0.41614,0.76507 0.40125,1.18661 0.46588,1.84222 0.24262,0.53769 0.48389,0.75409 0.96161,1.13278 0.11936,0.63779 0.0805,1.02607 0.009,1.82108 0.65768,1.58237 1.34827,2.758 2.20651,4.19125 0.37045,1.01838 0.57324,1.77906 0.83811,2.78357 0.29168,0.48023 0.5213,0.71662 0.83795,1.14942 0.0871,0.19644 0.0917,0.6261 0.16314,0.8713 0.31452,0.47477 0.55765,0.70432 0.8957,1.11338 0.0949,0.17947 0.0572,0.58374 0.12353,0.84131 0.31656,0.49911 0.5668,0.74069 0.94296,1.22738 0.39804,0.70838 0.67014,1.17163 1.01487,1.86405 0.22225,0.52859 0.44967,0.74707 0.89871,1.19586 1.27072,1.51352 2.53064,2.6174 3.50323,3.93362 7.1543,9.6821 16.46396,16.65494 27.05243,22.18872 3.03708,1.58728 5.28842,1.27219 8.22525,-0.21191 9.15332,-4.62573 16.91174,-10.95654 24.28998,-18.31656 4.07129,-1.45746 5.98712,-4.08337 5.71222,-8.15015 0.0295,0.005 -0.0301,-0.006 -0.0301,-0.006 z"
   id="path82" />
<path
   fill="#000000"
   opacity="1"
   stroke="none"
   d="m 616.40153,413.27916 c -5.88892,-0.74506 -5.82159,5.12045 -8.57727,8.71005 -1.76025,-3.86084 -3.03705,-7.01037 -4.60388,-10.00833 -1.9112,-3.65701 -5.16504,-3.48236 -8.09394,-0.65677 -2.7594,2.66205 -3.78125,5.01544 -2.9815,8.9147 0.34833,1.69834 -1.62866,4.43634 -3.29279,5.78522 -1.09479,0.88745 -4.14416,2.26227 -5.18548,-1.53296 1.97021,-5.65408 4.20556,-11.09625 6.83355,-17.04187 0.5622,-1.05935 0.73175,-1.61529 0.90131,-2.17126 0.88965,-2.14966 1.64545,-4.36753 2.6983,-6.43399 1.87561,-3.68109 0.47699,-7.18936 -0.52936,-10.88858 5.53589,-3.80133 7.97156,1.31277 10.65119,3.88528 4.36627,4.19171 4.82953,4.31424 7.30267,-1.47845 0.97003,-2.27198 2.14026,-4.45841 3.35279,-6.95917 3.68896,1.23987 7.08282,2.38055 10.47668,3.52124 0.29736,-0.40991 0.59473,-0.81982 0.89209,-1.22974 0.99957,2.901 1.99921,5.80197 3.22192,9.35041 -2.2091,-0.702 -3.7384,-1.18796 -6.37658,-2.02631 1.92175,6.42694 4.6568,11.80463 4.94995,17.31229 0.68017,12.781 5.98364,24.8012 5.45556,37.73846 -0.21264,5.2103 1.65516,9.94003 6.719,13.13165 -1.13007,2.14371 -2.59277,4.14411 -4.43933,5.91898 -1.52051,-0.38294 -2.65717,-0.54041 -3.79383,-0.69788 0.60578,1.00061 1.21149,2.00122 1.81726,3.00186 -1.54821,1.56531 -3.09643,3.13062 -4.95574,4.80036 -1.79737,-0.58469 -3.28363,-1.27377 -5.5824,-2.33957 0.63916,-3.58496 1.14453,-7.84006 2.19452,-11.95618 1.37109,-5.37478 1.26037,-10.44339 -1.34827,-15.44003 -0.57751,-1.10629 -0.9975,-2.73425 -0.62506,-3.82727 2.90314,-8.51938 -3.13007,-16.11267 -2.03015,-24.24793 -1.83991,-0.89682 -3.37061,-1.64291 -4.61945,-2.76831 0.98639,-0.85339 1.69092,-1.32751 2.39539,-1.80163 -0.38239,-0.39786 -0.76483,-0.79572 -1.14728,-1.19357 -0.55994,0.87643 -1.11993,1.75286 -1.67987,2.6293 z"
   id="path83" />
<path
   fill="#000000"
   opacity="1"
   stroke="none"
   d="m 634.04923,469.34447 c -0.85516,-0.92112 -1.46087,-1.92173 -2.06665,-2.92234 1.13666,0.15747 2.27332,0.31494 3.4795,0.84305 -0.3415,0.9137 -0.75245,1.45676 -1.41285,2.07929 z"
   id="path84" />
<path
   fill="#000000"
   opacity="1"
   stroke="none"
   d="m 438.90757,431.19878 c -0.1871,0.87121 -0.66296,1.89935 -1.53131,2.92993 0.1525,-0.92273 0.69754,-1.84787 1.53131,-2.92993 z"
   id="path85" />

<path
   fill="#000000"
   opacity="1"
   stroke="none"
   d="m 459.75071,392.18889 c 0.24274,-0.86087 0.52326,-1.43018 0.80374,-1.99945 0.2385,0.19033 0.47699,0.38067 0.71549,0.57104 -0.49384,0.5733 -0.98764,1.14664 -1.51923,1.42841 z"
   id="path86" />
<path
   fill="#000000"
   opacity="1"
   stroke="none"
   d="m 591.15568,405.44496 c 0.0763,0.38895 -0.0933,0.94489 -0.50842,1.66812 -0.0763,-0.38882 0.0931,-0.94494 0.50842,-1.66812 z"
   id="path87" />
<path
   fill="#000000"
   opacity="1"
   stroke="none"
   d="m 496.93388,402.83006 c -0.0556,0.0333 0.0557,-0.0333 0,0 z"
   id="path88" />
<path
   fill="#000000"
   opacity="1"
   stroke="none"
   d="m 462.85121,382.81178 c -0.0333,-0.0558 0.0333,0.0558 0,0 z"
   id="path89" />
<path
   fill="#000000"
   opacity="1"
   stroke="none"
   d="m 572.48527,437.17555 c 1.45349,-2.60449 3.27594,-5.20398 5.39056,-7.97928 0.59656,3.89588 -1.31927,6.52179 -5.39056,7.97928 z"
   id="path90" />
<path
   fill="#000000"
   opacity="1"
   stroke="none"
   d="m 501.4929,414.34413 c 0.73624,0.79871 1.4396,2.00415 2.09091,3.57159 -0.74264,-0.81359 -1.43323,-1.98922 -2.09091,-3.57159 z"
   id="path91" />
<path
   fill="#000000"
   opacity="1"
   stroke="none"
   d="m 500.52256,411.39024 c 0.22467,-0.0451 0.52887,0.14386 0.81824,0.60803 -0.33435,0.14609 -0.57562,-0.0703 -0.81824,-0.60803 z"
   id="path92" />
<path
   fill="#000000"
   opacity="1"
   stroke="none"
   d="m 508.51567,428.38579 c 0.23452,-0.0402 0.54168,0.14877 0.80184,0.61114 -0.35217,0.13593 -0.57959,-0.0826 -0.80184,-0.61114 z"
   id="path93" />
<path
   fill="#000000"
   opacity="1"
   stroke="none"
   d="m 506.55784,425.29436 c 0.26016,-0.0422 0.58667,0.17328 0.86511,0.68548 -0.29831,0.0552 -0.54855,-0.18637 -0.86511,-0.68548 z"
   id="path94" />
<path
   fill="#000000"
   opacity="1"
   stroke="none"
   d="m 505.53861,423.33967 c 0.25092,-0.044 0.57322,0.15711 0.84815,0.64609 -0.2905,0.0582 -0.53363,-0.17132 -0.84815,-0.64609 z"
   id="path95" />
<path
   fill="#000000"
   opacity="1"
   stroke="none"
   d="m 504.53752,421.31895 c 0.24157,-0.0328 0.54519,0.17823 0.79986,0.67112 -0.27856,0.0455 -0.50818,-0.19089 -0.79986,-0.67112 z"
   id="path96" />
<path
   fill="#000000"
   opacity="1"
   stroke="none"
   d="m 616.75834,413.27244 c 0.20313,-0.86972 0.76312,-1.74615 1.32306,-2.62258 0.38245,0.39785 0.76489,0.79571 1.14728,1.19357 -0.70447,0.47412 -1.409,0.94824 -2.47034,1.42901 z"
   id="path97" />
<path
   fill="#000000"
   opacity="1"
   stroke="none"
   d="m 529.56178,423.92113 c -0.28867,-1.20124 -0.74152,-2.61863 -0.31403,-2.97248 6.23633,-5.16217 23.39371,-4.6134 30.39292,1.04883 -3.62574,5.47107 -9.09186,8.51859 -14.8949,10.87738 -1.24335,0.50543 -3.47284,-0.60385 -4.8974,-1.51657 -3.45697,-2.21481 -6.70761,-4.75165 -10.28659,-7.43716 z"
   id="path98" />
</svg>
